# xmcd
#
# Track frame offsets:
#	150
#	15827
#	31139
#	47717
#	65204
#	79897
#	100872
#	119598
#	135604
#	150074
#	165799
#	182019
#
# Disc length: 2679 seconds
#
# Revision: 3
# Processed by: cddbd v1.5.2PL0 Copyright (c) Steve Scherf et al.
# Submitted via: EasyCDDAExtractor 15.3.0.1
#
DISCID=870a750c
DTITLE=Area 305 - Hay Que Cambiar
DYEAR=2004
DGENRE=Latin
TTITLE0=Hay Que Cambiar
TTITLE1=Que Linda Morena
TTITLE2=Si Pudieras Ver
TTITLE3=Me Enamore
TTITLE4=En Soledad
TTITLE5=Si Tu Me Faltas
TTITLE6=Nadie Nada
TTITLE7=Dudas
TTITLE8=Se Me Va La Vida
TTITLE9=Pienso En Ti
TTITLE10=Hay Que Cambiar (Version Regional Mexicana) (Bonus Track)
TTITLE11=Hay Que Cambiar (Version Salsa) (Bonus Track)
EXTD=
EXTT0=
EXTT1=
EXTT2=
EXTT3=
EXTT4=
EXTT5=
EXTT6=
EXTT7=
EXTT8=
EXTT9=
EXTT10=
EXTT11=
PLAYORDER=
